HIERARCHY
ROOT Hips
{
 OFFSET 0.000000 0.000000 0.000000
 CHANNELS 6 Xposition Yposition Zposition Yrotation Xrotation Zrotation
 JOINT Chest
 {
  OFFSET 0.000000 16.280000 -0.014500
  CHANNELS 3 Yrotation Xrotation Zrotation
  JOINT Chest2
  {
   OFFSET 0.000000 10.601900 0.029500
   CHANNELS 3 Yrotation Xrotation Zrotation
   JOINT Chest3
   {
    OFFSET 0.000000 10.554800 0.000000
    CHANNELS 3 Yrotation Xrotation Zrotation
    JOINT Chest4
    {
     OFFSET 0.000000 10.544000 0.000000
     CHANNELS 3 Yrotation Xrotation Zrotation
     JOINT Neck
     {
      OFFSET 0.000000 16.186500 0.000000
      CHANNELS 3 Yrotation Xrotation Zrotation
      JOINT Head
      {
       OFFSET 0.000000 9.876700 0.062400
       CHANNELS 3 Yrotation Xrotation Zrotation
       End Site
       {
        OFFSET 0.000000 18.635100 0.032900
       }
      }
     }
     JOINT RightCollar
     {
      OFFSET -3.550000 10.761000 0.000000
      CHANNELS 3 Yrotation Xrotation Zrotation
      JOINT RightShoulder
      {
       OFFSET -16.915100 0.000000 0.000000
       CHANNELS 3 Yrotation Xrotation Zrotation
       JOINT RightElbow
       {
        OFFSET 0.000000 -31.241900 0.000000
        CHANNELS 3 Yrotation Xrotation Zrotation
        JOINT RightWrist
        {
         OFFSET 0.000000 -25.690800 0.013700
         CHANNELS 3 Yrotation Xrotation Zrotation
         End Site
         {
          OFFSET 0.000000 -19.336200 0.000000
         }
        }
       }
      }
     }
     JOINT LeftCollar
     {
      OFFSET 3.550000 10.761000 0.000000
      CHANNELS 3 Yrotation Xrotation Zrotation
      JOINT LeftShoulder
      {
       OFFSET 16.915100 0.000000 0.000000
       CHANNELS 3 Yrotation Xrotation Zrotation
       JOINT LeftElbow
       {
        OFFSET 0.000000 -31.241900 0.000000
        CHANNELS 3 Yrotation Xrotation Zrotation
        JOINT LeftWrist
        {
         OFFSET 0.000000 -25.690800 0.013700
         CHANNELS 3 Yrotation Xrotation Zrotation
         End Site
         {
          OFFSET 0.000000 -19.336200 0.000000
         }
        }
       }
      }
     }
    }
   }
  }
 }
 JOINT RightHip
 {
  OFFSET -13.350800 0.071600 0.007200
  CHANNELS 3 Yrotation Xrotation Zrotation
  JOINT RightKnee
  {
   OFFSET 0.000000 -49.946400 0.002700
   CHANNELS 3 Yrotation Xrotation Zrotation
   JOINT RightAnkle
   {
    OFFSET 0.000000 -42.233900 0.021900
    CHANNELS 3 Yrotation Xrotation Zrotation
    JOINT RightToe
    {
     OFFSET 0.000000 -11.862800 19.724700
     CHANNELS 3 Yrotation Xrotation Zrotation
     End Site
     {
      OFFSET 0.000000 -1.715400 7.529500
     }
    }
   }
  }
 }
 JOINT LeftHip
 {
  OFFSET 13.350800 0.071600 0.007200
  CHANNELS 3 Yrotation Xrotation Zrotation
  JOINT LeftKnee
  {
   OFFSET 0.000000 -49.946400 0.002700
   CHANNELS 3 Yrotation Xrotation Zrotation
   JOINT LeftAnkle
   {
    OFFSET 0.000000 -42.233900 0.021900
    CHANNELS 3 Yrotation Xrotation Zrotation
    JOINT LeftToe
    {
     OFFSET 0.000000 -11.862800 19.724700
     CHANNELS 3 Yrotation Xrotation Zrotation
     End Site
     {
      OFFSET 0.000000 -1.715400 7.529500
     }
    }
   }
  }
 }
}
MOTION
Frames: 5
Frame Time: 0.008333
0.000000 103.775900 0.000000 0.000000 -5.767877 0.000000 0.000000 11.653817 0.000000 0.000000 -5.885947 0.000000 0.000000 -0.000000 0.000000 0.000000 -0.000000 0.000000 0.000000 12.528835 0.000000 0.000000 0.711642 0.000000 0.000000 -0.000000 0.000000 0.000000 0.000000 -90.000000 0.000000 -2.309062 0.000000 0.000000 2.309062 0.000000 0.000000 -0.000000 0.000000 0.000000 -0.000000 90.000000 0.000000 -2.309062 0.000000 0.000000 2.309062 0.000000 0.000000 8.520406 0.000000 0.000000 1.905762 0.000000 -0.000000 -4.658285 0.000000 0.000000 -0.000000 0.000000 0.000000 8.520406 0.000000 0.000000 1.905762 0.000000 -0.000000 -4.658285 0.000000 0.000000 -0.000000 0.000000
45.851970 153.100763 37.309763 179.212372 -14.273004 -1.921651 -2.142725 7.837188 2.429473 -0.106433 0.427286 0.145454 -0.209945 0.672493 0.245112 -1.951893 7.389002 2.496541 -1.603007 21.260521 -2.373937 -1.169360 -3.058759 -2.175659 3.530300 4.453188 -4.200391 12.155037 -7.782382 -4.306546 52.161472 -40.222867 -37.137721 -7.810092 -4.791658 -20.442789 -3.025908 6.900346 0.642218 -9.660599 -12.072800 -0.020973 -51.239234 -36.232336 40.305204 -7.625475 -3.524317 19.910256 0.121643 -57.542613 -0.691529 -167.318652 71.704526 -158.493457 -2.091757 -35.121350 -2.387373 0.080847 -0.199127 0.042916 -10.283934 -55.032817 7.584047 158.234784 70.269387 155.045528 0.343567 -36.145458 -3.068496 0.065942 0.183671 0.044278
48.840954 145.692320 36.567107 179.219473 -14.233429 -1.986624 -2.133601 7.827151 2.498422 -0.108158 0.412968 0.144570 -0.196486 0.703360 0.249232 -1.956782 7.364792 2.499799 -1.613342 21.248074 -2.375989 -1.163945 -3.049266 -2.168248 3.520559 4.445662 -4.204066 12.144942 -7.780731 -4.312020 52.227028 -40.231039 -37.201765 -7.810189 -4.738308 -20.372031 -3.029405 6.901869 0.639921 -9.649713 -12.036535 -0.034316 -51.302020 -36.270600 40.367065 -7.623477 -3.523013 19.922404 0.015257 -57.603389 -0.572800 -167.344786 71.678809 -158.515901 -2.053532 -35.189517 -2.393520 0.053545 -0.126258 0.032190 -10.398687 -55.051935 7.708746 158.233479 70.298567 155.038817 0.364115 -36.072403 -3.063564 0.048387 0.146257 0.029113
51.307151 139.591847 35.950563 179.206090 -14.211787 -2.052480 -2.096123 7.832452 2.574808 -0.108076 0.419300 0.144214 -0.207282 0.677519 0.247153 -1.946292 7.381145 2.504546 -1.606384 21.257954 -2.367291 -1.178577 -3.068185 -2.166602 3.516354 4.451171 -4.203976 12.109022 -7.750600 -4.323651 52.337060 -40.270261 -37.310482 -7.808592 -4.677867 -20.294946 -3.032659 6.905523 0.642939 -9.641285 -12.005199 -0.043526 -51.359157 -36.308275 40.426228 -7.623320 -3.519850 19.928041 -0.086893 -57.642547 -0.434521 -167.344146 71.660045 -158.513919 -2.011195 -35.249826 -2.403405 0.025547 -0.065866 0.015359 -10.503543 -55.054863 7.842186 158.239279 70.320609 155.036479 0.399327 -35.988704 -3.062329 0.020314 0.081364 0.012222
53.083722 135.185674 35.501845 179.210856 -14.198609 -2.088411 -2.072568 7.871735 2.616959 -0.114923 0.399759 0.143241 -0.211765 0.669711 0.248612 -1.947109 7.375106 2.504172 -1.605519 21.259274 -2.365865 -1.182819 -3.075219 -2.164873 3.531971 4.489798 -4.194881 12.041309 -7.697158 -4.343072 52.490163 -40.338592 -37.471896 -7.821893 -4.635930 -20.245974 -3.034651 6.920065 0.648691 -9.639903 -12.015946 -0.045001 -51.384994 -36.328022 40.446692 -7.613268 -3.521513 19.948901 -0.148874 -57.668424 -0.366855 -167.352709 71.642632 -158.522161 -1.990115 -35.283342 -2.408357 0.014099 -0.034908 0.008478 -10.572448 -55.058506 7.915201 158.249810 70.333190 155.040810 0.399897 -35.940502 -3.052980 0.013524 0.046924 0.008136
